<svg width="386" height="59" viewBox="0 0 386 59" fill="none" xmlns="http://www.w3.org/2000/svg">
<path d="M7.07075 58.4C5.08675 58.4 3.45475 57.824 2.17475 56.672C0.95875 55.52 0.47875 53.792 0.73475 51.488C0.79875 50.656 0.99075 49.792 1.31075 48.896C1.69475 47.936 2.11075 47.008 2.55875 46.112C2.94275 45.216 3.32675 44.768 3.71075 44.768C4.03075 44.768 4.06275 45.024 3.80675 45.536C2.97475 47.264 2.55875 48.8 2.55875 50.144C2.55875 51.552 3.03875 52.608 3.99875 53.312C5.02275 54.016 6.33475 54.368 7.93475 54.368C11.0708 54.368 14.5268 53.376 18.3028 51.392C22.0788 49.344 25.9828 46.752 30.0148 43.616C34.0468 40.416 37.9188 37.088 41.6308 33.632C39.1348 33.504 36.7988 33.376 34.6228 33.248C32.4468 33.12 30.5268 33.056 28.8628 33.056C27.4548 33.056 25.7588 33.184 23.7748 33.44C21.7908 33.696 20.2548 34.368 19.1668 35.456C18.7188 35.904 18.3028 36.576 17.9188 37.472C17.5988 38.304 17.4388 39.168 17.4388 40.064C17.4388 40.32 17.4388 40.576 17.4388 40.832C17.5028 41.024 17.5668 41.248 17.6308 41.504C17.3748 41.376 16.8948 41.28 16.1908 41.216C15.5508 41.088 15.1348 40.672 14.9428 39.968C14.8788 39.776 14.8468 39.456 14.8468 39.008C14.8468 37.984 15.2308 37.152 15.9988 36.512C16.7668 35.808 17.6948 35.2 18.7828 34.688C19.8708 34.176 20.8628 33.728 21.7588 33.344C23.8708 32.448 26.0468 31.712 28.2868 31.136C30.5268 30.56 32.7988 30.272 35.1028 30.272C37.7268 30.272 40.9908 30.368 44.8948 30.56C47.9028 27.616 50.6868 24.832 53.2468 22.208C55.8068 19.584 57.8868 17.408 59.4868 15.68C61.7268 13.312 64.0948 11.296 66.5908 9.632C69.1508 7.904 71.7428 6.688 74.3668 5.984H69.0868C66.8468 5.984 64.4148 6.08 61.7908 6.272C59.1668 6.464 56.7028 6.88 54.3988 7.52C52.0948 8.16 50.1748 9.12 48.6388 10.4C47.6788 11.232 46.9427 12.192 46.4308 13.28C45.9828 14.304 45.7588 15.264 45.7588 16.16C45.7588 17.376 46.1108 18.208 46.8148 18.656C46.8788 18.656 46.9108 18.688 46.9108 18.752C46.9108 18.944 46.6868 19.168 46.2388 19.424C45.7908 19.616 45.4708 19.648 45.2788 19.52C44.6388 19.072 44.0628 18.176 43.5508 16.832C43.1028 15.424 42.9428 14.304 43.0708 13.472C43.3908 11.488 44.2548 9.888 45.6628 8.672C47.1348 7.392 48.9268 6.4 51.0388 5.696C53.2148 4.992 55.4868 4.512 57.8548 4.256C60.2868 4 62.5908 3.84 64.7668 3.776C67.0068 3.712 68.8948 3.68 70.4308 3.68H80.8948C81.0228 3.68 81.0548 3.712 80.9908 3.776C82.5908 3.072 84.2548 2.368 85.9828 1.664C87.7748 0.959997 89.3108 0.607998 90.5908 0.607998C90.9108 0.607998 91.2308 0.703999 91.5508 0.896C91.9348 1.088 92.1268 1.28 92.1268 1.472C92.1268 1.792 91.4868 1.952 90.2068 1.952C89.5668 1.952 88.8948 2.08 88.1908 2.336C87.5508 2.528 86.6868 3.2 85.5988 4.352C84.7028 5.248 83.5828 6.688 82.2388 8.672C80.8948 10.656 79.4228 12.992 77.8228 15.68C76.2228 18.304 74.6228 21.12 73.0228 24.128C71.4228 27.072 69.8868 29.984 68.4148 32.864C66.9428 35.744 65.6628 38.4 64.5748 40.832C64.4468 41.216 64.0948 42.112 63.5188 43.52C62.9428 44.864 62.3988 46.368 61.8868 48.032C61.3748 49.632 61.1188 51.072 61.1188 52.352C61.1188 54.08 61.7268 54.944 62.9428 54.944C63.5188 54.944 64.0948 54.816 64.6708 54.56C65.5028 54.24 66.3668 53.76 67.2628 53.12C68.1588 52.48 69.0228 51.744 69.8548 50.912C71.5188 49.312 72.9268 47.776 74.0788 46.304C75.2308 44.768 75.9348 43.84 76.1908 43.52C76.3828 43.2 76.6068 43.04 76.8628 43.04C77.1188 43.04 77.2468 43.2 77.2468 43.52C77.2468 43.712 77.1508 43.968 76.9588 44.288C76.5108 44.928 75.6788 46.048 74.4628 47.648C73.2468 49.184 71.8068 50.752 70.1428 52.352C68.5428 53.952 66.8148 55.168 64.9588 56C64.3828 56.256 63.7748 56.448 63.1348 56.576C62.4948 56.768 61.8548 56.864 61.2148 56.864C59.9348 56.864 58.7508 56.416 57.6628 55.52C56.6388 54.624 56.1268 53.152 56.1268 51.104C56.1268 49.248 56.4788 47.264 57.1828 45.152C57.9508 42.976 58.6548 41.216 59.2948 39.872C60.5748 37.12 62.0788 34.048 63.8068 30.656C65.5988 27.264 67.4228 23.872 69.2788 20.48C71.1988 17.088 72.9588 14.016 74.5588 11.264C76.1588 8.512 77.4708 6.464 78.4948 5.12C77.4708 5.12 76.0948 5.536 74.3668 6.368C72.6388 7.136 70.7828 8.192 68.7988 9.536C66.8788 10.816 65.0868 12.32 63.4228 14.048C61.4388 16.096 59.1348 18.592 56.5108 21.536C53.9508 24.48 51.1668 27.552 48.1588 30.752C49.6308 30.816 51.1028 30.88 52.5748 30.944C54.0468 30.944 55.5188 30.944 56.9908 30.944C58.0148 30.944 59.1348 30.848 60.3508 30.656C61.6308 30.4 62.8148 30.016 63.9028 29.504C63.9028 29.504 63.7108 29.856 63.3268 30.56C63.0068 31.2 62.4308 31.872 61.5988 32.576C60.8308 33.216 59.7748 33.6 58.4308 33.728C57.2148 33.792 55.9988 33.856 54.7828 33.92C53.5668 33.92 52.3507 33.92 51.1348 33.92C50.1108 33.92 49.0868 33.92 48.0627 33.92C47.1028 33.92 46.1428 33.888 45.1828 33.824C42.2388 36.896 39.1668 39.904 35.9668 42.848C32.7668 45.728 29.5348 48.352 26.2708 50.72C23.0068 53.088 19.7428 54.944 16.4788 56.288C13.2788 57.696 10.1428 58.4 7.07075 58.4ZM73.3663 57.824C73.2383 57.824 73.0143 57.76 72.6943 57.632C72.3742 57.568 72.2142 57.44 72.2142 57.248C72.2142 57.184 72.2462 57.12 72.3102 57.056C72.3742 56.992 72.4062 56.96 72.4062 56.96C72.8543 56.832 73.0463 56.768 72.9823 56.768C72.9823 56.832 73.2063 56.8 73.6543 56.672C74.7423 56.288 75.6703 55.744 76.4383 55.04C77.2703 54.272 77.9743 53.376 78.5503 52.352C81.5583 47.36 84.4383 42.304 87.1903 37.184C89.9423 32 92.6943 26.848 95.4463 21.728C96.2143 20.384 96.9503 19.008 97.6543 17.6C98.3583 16.192 99.0623 14.784 99.7663 13.376C100.086 12.608 100.406 11.84 100.726 11.072C101.11 10.304 101.526 9.568 101.974 8.864C102.486 7.968 103.286 7.2 104.374 6.56C105.526 5.856 106.614 5.344 107.638 5.024H105.334C104.054 5.024 102.294 5.12 100.054 5.312C97.8783 5.44 95.5743 5.696 93.1423 6.08C90.7103 6.464 88.5343 7.04 86.6143 7.808C84.7583 8.576 83.4783 9.6 82.7743 10.88C82.1343 12.032 81.8143 13.152 81.8143 14.24C81.8143 15.52 82.1023 16.384 82.6783 16.832C83.2543 17.28 83.5423 17.568 83.5423 17.696C83.5423 17.824 83.4463 17.952 83.2543 18.08C83.0623 18.208 82.9023 18.272 82.7743 18.272C82.3903 18.272 81.9103 17.888 81.3343 17.12C80.7583 16.352 80.2143 15.52 79.7023 14.624C79.2543 13.664 78.9663 13.024 78.8383 12.704C78.6463 12 78.5503 11.296 78.5503 10.592C78.5503 8.864 79.1263 7.552 80.2783 6.656C81.4943 5.696 82.9663 5.024 84.6943 4.64C86.4223 4.256 88.1503 4.032 89.8783 3.96799C91.6703 3.84 93.1423 3.776 94.2943 3.776C97.4943 3.776 100.694 3.712 103.894 3.584C107.094 3.392 110.262 3.296 113.398 3.296C116.406 3.296 119.35 3.52 122.23 3.96799C125.174 4.352 127.83 5.152 130.198 6.368C132.566 7.584 134.454 9.312 135.862 11.552C137.334 13.792 138.07 16.736 138.07 20.384C138.07 23.712 137.43 27.136 136.15 30.656C134.934 34.112 133.398 37.216 131.542 39.968C123.734 51.68 112.79 57.536 98.7103 57.536C96.5343 57.536 94.2943 57.312 91.9903 56.864C89.7503 56.416 87.6383 55.68 85.6543 54.656C85.2063 54.4 84.7263 54.208 84.2143 54.08C83.7663 53.888 83.2863 53.792 82.7743 53.792C81.6863 53.792 80.5983 54.144 79.5103 54.848C78.4223 55.488 77.3663 56.128 76.3423 56.768C75.3183 57.472 74.3263 57.824 73.3663 57.824ZM97.5583 56.192C102.358 56.192 106.838 55.264 110.998 53.408C115.158 51.552 118.806 48.96 121.942 45.632C125.078 42.24 127.542 38.368 129.334 34.016C130.166 31.968 130.838 29.824 131.35 27.584C131.926 25.344 132.214 23.136 132.214 20.96C132.214 15.968 130.678 12.128 127.606 9.44C124.598 6.688 120.63 5.312 115.702 5.312C114.486 5.312 113.206 5.44 111.862 5.696C110.582 5.952 109.526 6.56 108.694 7.52C107.862 8.544 107.062 9.664 106.294 10.88C105.59 12.096 104.886 13.28 104.182 14.432C102.71 16.992 101.302 19.648 99.9583 22.4C98.6783 25.088 97.3663 27.744 96.0223 30.368C93.9103 34.4 91.8303 38.464 89.7823 42.56C89.3343 43.456 88.8543 44.384 88.3423 45.344C87.8943 46.24 87.4463 47.136 86.9983 48.032C86.8703 48.352 86.7423 48.704 86.6143 49.088C86.4863 49.408 86.4223 49.792 86.4223 50.24C86.4223 51.072 86.6783 51.776 87.1903 52.352C87.7023 52.928 88.2463 53.472 88.8223 53.984C90.0383 54.88 91.4463 55.488 93.0463 55.808C94.6463 56.064 96.1503 56.192 97.5583 56.192ZM133.46 57.824C133.332 57.824 133.108 57.76 132.788 57.632C132.468 57.568 132.308 57.44 132.308 57.248C132.308 57.184 132.34 57.12 132.404 57.056C132.468 56.992 132.5 56.96 132.5 56.96C132.948 56.832 133.14 56.768 133.076 56.768C133.076 56.832 133.3 56.8 133.748 56.672C134.836 56.288 135.764 55.744 136.532 55.04C137.364 54.272 138.068 53.376 138.644 52.352C141.652 47.36 144.532 42.304 147.284 37.184C150.036 32 152.788 26.848 155.54 21.728C156.308 20.384 157.044 19.008 157.748 17.6C158.452 16.192 159.156 14.784 159.86 13.376C160.18 12.608 160.5 11.84 160.82 11.072C161.204 10.304 161.62 9.568 162.068 8.864C162.58 7.968 163.38 7.2 164.468 6.56C165.62 5.856 166.708 5.344 167.732 5.024H165.428C164.148 5.024 162.388 5.12 160.148 5.312C157.972 5.44 155.668 5.696 153.236 6.08C150.804 6.464 148.628 7.04 146.708 7.808C144.852 8.576 143.572 9.6 142.868 10.88C142.228 12.032 141.908 13.152 141.908 14.24C141.908 15.52 142.196 16.384 142.772 16.832C143.348 17.28 143.636 17.568 143.636 17.696C143.636 17.824 143.54 17.952 143.348 18.08C143.156 18.208 142.996 18.272 142.868 18.272C142.484 18.272 142.004 17.888 141.428 17.12C140.852 16.352 140.308 15.52 139.796 14.624C139.348 13.664 139.06 13.024 138.932 12.704C138.74 12 138.644 11.296 138.644 10.592C138.644 8.864 139.22 7.552 140.372 6.656C141.588 5.696 143.06 5.024 144.788 4.64C146.516 4.256 148.244 4.032 149.972 3.96799C151.764 3.84 153.236 3.776 154.388 3.776C157.588 3.776 160.788 3.712 163.988 3.584C167.188 3.392 170.356 3.296 173.492 3.296C176.5 3.296 179.444 3.52 182.324 3.96799C185.268 4.352 187.924 5.152 190.292 6.368C192.66 7.584 194.548 9.312 195.956 11.552C197.428 13.792 198.164 16.736 198.164 20.384C198.164 23.712 197.524 27.136 196.244 30.656C195.028 34.112 193.492 37.216 191.636 39.968C183.828 51.68 172.884 57.536 158.804 57.536C156.628 57.536 154.388 57.312 152.084 56.864C149.844 56.416 147.732 55.68 145.748 54.656C145.3 54.4 144.82 54.208 144.308 54.08C143.86 53.888 143.38 53.792 142.868 53.792C141.78 53.792 140.692 54.144 139.604 54.848C138.516 55.488 137.46 56.128 136.436 56.768C135.412 57.472 134.42 57.824 133.46 57.824ZM157.652 56.192C162.452 56.192 166.932 55.264 171.092 53.408C175.252 51.552 178.9 48.96 182.036 45.632C185.172 42.24 187.636 38.368 189.428 34.016C190.26 31.968 190.932 29.824 191.444 27.584C192.02 25.344 192.308 23.136 192.308 20.96C192.308 15.968 190.772 12.128 187.7 9.44C184.692 6.688 180.724 5.312 175.796 5.312C174.58 5.312 173.3 5.44 171.956 5.696C170.676 5.952 169.62 6.56 168.788 7.52C167.956 8.544 167.156 9.664 166.388 10.88C165.684 12.096 164.98 13.28 164.276 14.432C162.804 16.992 161.396 19.648 160.052 22.4C158.772 25.088 157.46 27.744 156.116 30.368C154.004 34.4 151.924 38.464 149.876 42.56C149.428 43.456 148.948 44.384 148.436 45.344C147.988 46.24 147.54 47.136 147.092 48.032C146.964 48.352 146.836 48.704 146.708 49.088C146.58 49.408 146.516 49.792 146.516 50.24C146.516 51.072 146.772 51.776 147.284 52.352C147.796 52.928 148.34 53.472 148.916 53.984C150.132 54.88 151.54 55.488 153.14 55.808C154.74 56.064 156.244 56.192 157.652 56.192ZM200.946 58.4C198.962 58.4 197.33 57.824 196.05 56.672C194.834 55.52 194.354 53.792 194.61 51.488C194.674 50.656 194.866 49.792 195.186 48.896C195.57 47.936 195.986 47.008 196.434 46.112C196.818 45.216 197.202 44.768 197.586 44.768C197.906 44.768 197.938 45.024 197.682 45.536C196.85 47.264 196.434 48.8 196.434 50.144C196.434 51.552 196.914 52.608 197.874 53.312C198.898 54.016 200.21 54.368 201.81 54.368C204.946 54.368 208.402 53.376 212.178 51.392C215.954 49.344 219.858 46.752 223.89 43.616C227.922 40.416 231.794 37.088 235.506 33.632C233.01 33.504 230.674 33.376 228.498 33.248C226.322 33.12 224.402 33.056 222.738 33.056C221.33 33.056 219.634 33.184 217.65 33.44C215.666 33.696 214.13 34.368 213.042 35.456C212.594 35.904 212.178 36.576 211.794 37.472C211.474 38.304 211.314 39.168 211.314 40.064C211.314 40.32 211.314 40.576 211.314 40.832C211.378 41.024 211.442 41.248 211.506 41.504C211.25 41.376 210.77 41.28 210.066 41.216C209.426 41.088 209.01 40.672 208.818 39.968C208.754 39.776 208.722 39.456 208.722 39.008C208.722 37.984 209.106 37.152 209.874 36.512C210.642 35.808 211.57 35.2 212.658 34.688C213.746 34.176 214.738 33.728 215.634 33.344C217.746 32.448 219.922 31.712 222.162 31.136C224.402 30.56 226.674 30.272 228.978 30.272C231.602 30.272 234.866 30.368 238.77 30.56C241.778 27.616 244.562 24.832 247.122 22.208C249.682 19.584 251.762 17.408 253.362 15.68C255.602 13.312 257.97 11.296 260.466 9.632C263.026 7.904 265.618 6.688 268.242 5.984H262.962C260.722 5.984 258.29 6.08 255.666 6.272C253.042 6.464 250.578 6.88 248.274 7.52C245.97 8.16 244.05 9.12 242.514 10.4C241.554 11.232 240.818 12.192 240.306 13.28C239.858 14.304 239.634 15.264 239.634 16.16C239.634 17.376 239.986 18.208 240.69 18.656C240.754 18.656 240.786 18.688 240.786 18.752C240.786 18.944 240.562 19.168 240.114 19.424C239.666 19.616 239.346 19.648 239.154 19.52C238.514 19.072 237.938 18.176 237.426 16.832C236.978 15.424 236.818 14.304 236.946 13.472C237.266 11.488 238.13 9.888 239.538 8.672C241.01 7.392 242.802 6.4 244.914 5.696C247.09 4.992 249.362 4.512 251.73 4.256C254.162 4 256.466 3.84 258.642 3.776C260.882 3.712 262.77 3.68 264.306 3.68H274.77C274.898 3.68 274.93 3.712 274.866 3.776C276.466 3.072 278.13 2.368 279.858 1.664C281.65 0.959997 283.186 0.607998 284.466 0.607998C284.786 0.607998 285.106 0.703999 285.426 0.896C285.81 1.088 286.002 1.28 286.002 1.472C286.002 1.792 285.362 1.952 284.082 1.952C283.442 1.952 282.77 2.08 282.066 2.336C281.426 2.528 280.562 3.2 279.474 4.352C278.578 5.248 277.458 6.688 276.114 8.672C274.77 10.656 273.298 12.992 271.698 15.68C270.098 18.304 268.498 21.12 266.898 24.128C265.298 27.072 263.762 29.984 262.29 32.864C260.818 35.744 259.538 38.4 258.45 40.832C258.322 41.216 257.97 42.112 257.394 43.52C256.818 44.864 256.274 46.368 255.762 48.032C255.25 49.632 254.994 51.072 254.994 52.352C254.994 54.08 255.602 54.944 256.818 54.944C257.394 54.944 257.97 54.816 258.546 54.56C259.378 54.24 260.242 53.76 261.138 53.12C262.034 52.48 262.898 51.744 263.73 50.912C265.394 49.312 266.802 47.776 267.954 46.304C269.106 44.768 269.81 43.84 270.066 43.52C270.258 43.2 270.482 43.04 270.738 43.04C270.994 43.04 271.122 43.2 271.122 43.52C271.122 43.712 271.026 43.968 270.834 44.288C270.386 44.928 269.554 46.048 268.338 47.648C267.122 49.184 265.682 50.752 264.018 52.352C262.418 53.952 260.69 55.168 258.834 56C258.258 56.256 257.65 56.448 257.01 56.576C256.37 56.768 255.73 56.864 255.09 56.864C253.81 56.864 252.626 56.416 251.538 55.52C250.514 54.624 250.002 53.152 250.002 51.104C250.002 49.248 250.354 47.264 251.058 45.152C251.826 42.976 252.53 41.216 253.17 39.872C254.45 37.12 255.954 34.048 257.682 30.656C259.474 27.264 261.298 23.872 263.154 20.48C265.074 17.088 266.834 14.016 268.434 11.264C270.034 8.512 271.346 6.464 272.37 5.12C271.346 5.12 269.97 5.536 268.242 6.368C266.514 7.136 264.658 8.192 262.674 9.536C260.754 10.816 258.962 12.32 257.298 14.048C255.314 16.096 253.01 18.592 250.386 21.536C247.826 24.48 245.042 27.552 242.034 30.752C243.506 30.816 244.978 30.88 246.45 30.944C247.922 30.944 249.394 30.944 250.866 30.944C251.89 30.944 253.01 30.848 254.226 30.656C255.506 30.4 256.69 30.016 257.778 29.504C257.778 29.504 257.586 29.856 257.202 30.56C256.882 31.2 256.306 31.872 255.474 32.576C254.706 33.216 253.65 33.6 252.306 33.728C251.09 33.792 249.874 33.856 248.658 33.92C247.442 33.92 246.226 33.92 245.01 33.92C243.986 33.92 242.962 33.92 241.938 33.92C240.978 33.92 240.018 33.888 239.058 33.824C236.114 36.896 233.042 39.904 229.842 42.848C226.642 45.728 223.41 48.352 220.146 50.72C216.882 53.088 213.618 54.944 210.354 56.288C207.154 57.696 204.018 58.4 200.946 58.4Z" fill="#005E0B"/>
<path d="M267.337 57.824C266.889 57.824 266.537 57.696 266.281 57.44C266.025 57.248 266.025 57.088 266.281 56.96C267.689 56.704 268.905 56.192 269.929 55.424C270.953 54.592 271.785 53.568 272.425 52.352C273.769 50.112 275.081 47.872 276.361 45.632C277.641 43.328 278.889 41.024 280.105 38.72L289.321 21.728C290.793 19.104 292.073 16.576 293.161 14.144C294.313 11.712 295.209 9.952 295.849 8.864C296.297 8.032 297.065 7.296 298.153 6.656C299.305 5.952 300.425 5.408 301.513 5.024C301.129 5.024 300.745 5.024 300.361 5.024C299.977 4.96 299.561 4.928 299.113 4.928C297.129 4.928 294.953 5.056 292.585 5.312C290.281 5.504 288.009 5.824 285.769 6.272C283.593 6.72 281.673 7.328 280.009 8.096C278.345 8.864 277.225 9.792 276.649 10.88C276.393 11.456 276.169 12.032 275.977 12.608C275.785 13.184 275.689 13.76 275.689 14.336C275.689 15.808 276.201 16.864 277.225 17.504C277.289 17.504 277.321 17.568 277.321 17.696C277.321 17.824 277.193 17.952 276.937 18.08C276.745 18.208 276.553 18.24 276.361 18.176C275.785 17.856 275.081 17.088 274.249 15.872C273.417 14.592 272.905 13.536 272.713 12.704C272.521 11.936 272.425 11.232 272.425 10.592C272.425 8.928 272.969 7.648 274.057 6.752C275.145 5.792 276.521 5.12 278.185 4.736C279.849 4.288 281.545 4.032 283.273 3.96799C285.065 3.84 286.633 3.776 287.977 3.776C290.025 3.776 292.457 3.776 295.273 3.776C298.089 3.712 300.681 3.68 303.049 3.68C303.625 3.68 304.265 3.68 304.969 3.68C305.673 3.616 306.409 3.584 307.177 3.584C308.905 3.584 310.697 3.68 312.553 3.872C314.409 4.064 316.105 4.48 317.641 5.12C319.177 5.76 320.361 6.752 321.193 8.096C322.025 9.504 322.441 11.04 322.441 12.704C322.441 14.304 322.121 15.904 321.481 17.504C320.841 19.104 320.073 20.48 319.177 21.632C318.601 22.336 317.929 23.04 317.161 23.744C316.393 24.448 315.529 25.12 314.569 25.76C313.609 26.4 312.553 27.008 311.401 27.584C310.313 28.096 309.001 28.512 307.465 28.832C307.401 28.832 307.337 28.928 307.273 29.12C307.273 29.312 307.337 29.408 307.465 29.408C307.785 29.472 308.329 29.568 309.097 29.696C309.929 29.76 310.665 29.856 311.305 29.984C313.545 30.432 315.401 31.392 316.873 32.864C318.409 34.272 319.177 36.192 319.177 38.624C319.177 41.376 318.441 43.904 316.969 46.208C315.561 48.512 313.737 50.496 311.497 52.16C309.257 53.76 306.921 55.008 304.489 55.904C301.417 57.056 297.897 57.632 293.929 57.632C291.561 57.632 289.097 57.408 286.537 56.96C283.977 56.512 281.641 55.744 279.529 54.656C279.081 54.4 278.633 54.208 278.185 54.08C277.737 53.888 277.257 53.792 276.745 53.792C275.849 53.792 274.889 54.048 273.865 54.56C273.225 54.816 272.393 55.296 271.369 56C270.345 56.704 269.193 57.28 267.913 57.728C267.785 57.792 267.593 57.824 267.337 57.824ZM290.857 56.288C292.521 56.288 294.185 56.128 295.849 55.808C297.513 55.424 299.017 54.976 300.361 54.464C302.729 53.568 304.905 52.32 306.889 50.72C308.873 49.056 310.473 47.104 311.689 44.864C312.969 42.56 313.609 40 313.609 37.184C313.609 35.328 313.129 33.92 312.169 32.96C311.209 31.936 309.993 31.232 308.521 30.848C307.049 30.464 305.513 30.272 303.913 30.272C302.697 30.272 301.545 30.336 300.457 30.464C299.369 30.592 298.377 30.752 297.481 30.944C295.689 31.264 294.089 31.616 292.681 32C292.425 31.872 292.457 31.648 292.777 31.328C293.097 30.944 293.513 30.528 294.025 30.08C294.601 29.632 295.049 29.28 295.369 29.024C295.497 28.896 295.753 28.704 296.137 28.448C296.585 28.128 296.937 27.968 297.193 27.968C300.329 27.968 303.113 27.776 305.545 27.392C308.041 27.008 310.185 26.08 311.977 24.608C313.769 23.072 315.241 20.704 316.393 17.504C316.969 15.84 317.257 14.208 317.257 12.608C317.257 10.752 316.809 9.152 315.913 7.808C315.017 6.4 313.577 5.568 311.593 5.312C311.337 5.248 311.049 5.216 310.729 5.216C310.409 5.216 310.089 5.216 309.769 5.216C308.553 5.216 307.209 5.376 305.737 5.696C304.329 6.016 303.273 6.624 302.569 7.52C300.969 9.632 299.433 12.032 297.961 14.72C296.489 17.344 295.081 20.032 293.737 22.784C292.393 25.472 291.113 28 289.897 30.368C288.425 33.248 286.921 36.16 285.385 39.104C283.849 42.048 282.345 45.024 280.873 48.032C280.489 48.8 280.297 49.536 280.297 50.24C280.297 51.52 281.097 52.768 282.697 53.984C283.785 54.816 285.033 55.424 286.441 55.808C287.913 56.128 289.385 56.288 290.857 56.288ZM321.148 57.824C321.02 57.824 320.796 57.76 320.476 57.632C320.155 57.568 319.995 57.44 319.995 57.248C319.995 57.184 320.027 57.12 320.091 57.056C320.155 56.992 320.188 56.96 320.188 56.96C320.636 56.832 320.828 56.768 320.764 56.768C320.764 56.832 320.988 56.8 321.436 56.672C322.524 56.288 323.452 55.744 324.22 55.04C325.052 54.272 325.756 53.376 326.332 52.352C329.34 47.36 332.22 42.304 334.972 37.184C337.724 32 340.476 26.848 343.228 21.728C343.996 20.384 344.732 19.008 345.436 17.6C346.14 16.192 346.844 14.784 347.548 13.376C347.868 12.608 348.188 11.84 348.508 11.072C348.892 10.304 349.308 9.568 349.756 8.864C350.268 7.968 351.068 7.2 352.156 6.56C353.308 5.856 354.396 5.344 355.42 5.024H353.116C351.836 5.024 350.076 5.12 347.836 5.312C345.66 5.44 343.356 5.696 340.924 6.08C338.492 6.464 336.316 7.04 334.396 7.808C332.54 8.576 331.26 9.6 330.556 10.88C329.916 12.032 329.596 13.152 329.596 14.24C329.596 15.52 329.884 16.384 330.46 16.832C331.036 17.28 331.324 17.568 331.324 17.696C331.324 17.824 331.228 17.952 331.036 18.08C330.844 18.208 330.684 18.272 330.556 18.272C330.172 18.272 329.692 17.888 329.116 17.12C328.54 16.352 327.996 15.52 327.484 14.624C327.036 13.664 326.748 13.024 326.62 12.704C326.428 12 326.332 11.296 326.332 10.592C326.332 8.864 326.908 7.552 328.06 6.656C329.276 5.696 330.748 5.024 332.476 4.64C334.204 4.256 335.932 4.032 337.66 3.96799C339.452 3.84 340.924 3.776 342.076 3.776C345.276 3.776 348.476 3.712 351.676 3.584C354.876 3.392 358.044 3.296 361.18 3.296C364.188 3.296 367.132 3.52 370.012 3.96799C372.956 4.352 375.612 5.152 377.98 6.368C380.348 7.584 382.236 9.312 383.644 11.552C385.116 13.792 385.852 16.736 385.852 20.384C385.852 23.712 385.212 27.136 383.932 30.656C382.716 34.112 381.18 37.216 379.324 39.968C371.516 51.68 360.572 57.536 346.492 57.536C344.316 57.536 342.076 57.312 339.772 56.864C337.532 56.416 335.42 55.68 333.436 54.656C332.988 54.4 332.508 54.208 331.996 54.08C331.548 53.888 331.068 53.792 330.556 53.792C329.468 53.792 328.38 54.144 327.292 54.848C326.204 55.488 325.148 56.128 324.124 56.768C323.1 57.472 322.108 57.824 321.148 57.824ZM345.34 56.192C350.14 56.192 354.62 55.264 358.78 53.408C362.94 51.552 366.588 48.96 369.724 45.632C372.86 42.24 375.324 38.368 377.116 34.016C377.948 31.968 378.62 29.824 379.132 27.584C379.708 25.344 379.996 23.136 379.996 20.96C379.996 15.968 378.46 12.128 375.388 9.44C372.38 6.688 368.412 5.312 363.484 5.312C362.268 5.312 360.988 5.44 359.644 5.696C358.364 5.952 357.308 6.56 356.476 7.52C355.644 8.544 354.844 9.664 354.076 10.88C353.372 12.096 352.668 13.28 351.964 14.432C350.492 16.992 349.084 19.648 347.74 22.4C346.46 25.088 345.148 27.744 343.804 30.368C341.692 34.4 339.612 38.464 337.564 42.56C337.116 43.456 336.636 44.384 336.124 45.344C335.676 46.24 335.228 47.136 334.78 48.032C334.652 48.352 334.524 48.704 334.396 49.088C334.268 49.408 334.204 49.792 334.204 50.24C334.204 51.072 334.46 51.776 334.972 52.352C335.484 52.928 336.028 53.472 336.604 53.984C337.82 54.88 339.228 55.488 340.828 55.808C342.428 56.064 343.932 56.192 345.34 56.192Z" fill="#FF0E0E"/>
</svg>
